<svg version="1.1" id="Layer_1" xmlns="http://www.w3.org/2000/svg" xmlns:xlink="http://www.w3.org/1999/xlink" x="0px" y="0px" width="100%px" viewBox="0 0 1024 1024" enable-background="new 0 0 1024 1024" xml:space="preserve" height="100px" transform="rotate(0) scale(1, 1)">
<path fill="#f0cc29" opacity="1.000000" stroke="none" d="&#xA;M217.382095,458.523071 &#xA;&#9;C210.041656,438.634216 202.849548,419.106232 195.642456,399.583771 &#xA;&#9;C194.835220,397.397156 193.798019,395.286469 193.116165,393.064240 &#xA;&#9;C190.606506,384.885071 186.858124,378.085968 178.239258,374.436188 &#xA;&#9;C172.996262,372.215973 170.187195,367.030823 167.365845,361.885315 &#xA;&#9;C162.961411,353.852631 156.117554,347.519287 149.874954,340.830078 &#xA;&#9;C147.946350,338.763519 145.818985,336.836121 144.172119,334.562805 &#xA;&#9;C140.916412,330.068726 141.208664,325.071777 145.591553,321.677582 &#xA;&#9;C153.876633,315.261444 162.395950,309.113708 171.130035,303.325409 &#xA;&#9;C175.655579,300.326202 180.736053,301.640167 185.171921,306.012665 &#xA;&#9;C189.826691,310.600952 193.547470,315.961029 196.929901,321.505524 &#xA;&#9;C199.703751,326.052460 202.656738,327.477539 208.314148,325.921387 &#xA;&#9;C227.793640,320.563049 247.916946,318.659088 267.951904,316.796539 &#xA;&#9;C313.944183,312.520813 360.103241,313.240021 406.228760,312.523956 &#xA;&#9;C460.211945,311.685944 514.195068,312.277039 568.169800,311.515930 &#xA;&#9;C616.145081,310.839478 664.122681,309.138184 712.094910,309.897247 &#xA;&#9;C752.644897,310.538879 792.786316,315.385223 831.739868,327.437225 &#xA;&#9;C836.207214,328.819366 838.427856,327.666443 840.498779,323.813324 &#xA;&#9;C843.886047,317.511108 847.478394,311.294006 851.387512,305.304108 &#xA;&#9;C855.821045,298.510529 861.370544,297.477112 867.966553,302.142303 &#xA;&#9;C875.187622,307.249603 882.522339,312.020508 890.644775,315.677490 &#xA;&#9;C897.717346,318.861725 898.819641,323.807465 894.434998,330.312653 &#xA;&#9;C890.993591,335.418365 887.221863,340.302979 883.554993,345.254852 &#xA;&#9;C878.818665,351.650970 873.812439,357.738922 870.730591,365.343689 &#xA;&#9;C867.667542,372.902039 860.556458,376.645966 853.181213,379.170288 &#xA;&#9;C849.253357,380.514679 847.297302,382.718903 846.122681,386.617493 &#xA;&#9;C836.277344,419.294525 826.425903,451.971649 816.237000,484.542633 &#xA;&#9;C808.782227,508.373169 800.815308,532.043518 793.075623,555.784912 &#xA;&#9;C792.972412,556.101318 792.940369,556.493408 792.731750,556.715576 &#xA;&#9;C783.395386,566.659973 786.091797,579.918274 783.586792,591.639771 &#xA;&#9;C781.916260,599.456482 778.519653,603.878967 771.427917,606.937439 &#xA;&#9;C752.224243,615.219360 731.985657,617.519897 711.425659,618.195312 &#xA;&#9;C698.257385,618.627991 697.494141,619.672119 703.398865,631.534546 &#xA;&#9;C704.931213,634.612915 705.552368,637.811707 705.813049,641.140991 &#xA;&#9;C705.959290,643.008362 705.584045,644.788757 704.377686,646.313049 &#xA;&#9;C698.213318,654.102539 684.315796,656.768616 675.492493,651.836853 &#xA;&#9;C674.475708,651.268494 673.538269,650.556641 672.514404,650.003174 &#xA;&#9;C664.182922,645.499146 663.065369,639.723694 669.290710,632.390442 &#xA;&#9;C670.942932,630.444214 672.177002,628.327759 673.194031,626.042969 &#xA;&#9;C675.570496,620.703796 674.343323,618.540405 668.514832,618.417297 &#xA;&#9;C657.020325,618.174500 645.519043,618.243958 634.024841,617.991577 &#xA;&#9;C560.562256,616.379211 487.087921,616.088318 413.612061,615.794739 &#xA;&#9;C402.623322,615.750793 391.633087,615.305908 380.639008,615.608765 &#xA;&#9;C375.319672,615.755310 374.093506,617.504211 376.082062,622.508667 &#xA;&#9;C377.309998,625.598816 378.996002,628.505615 380.252655,631.585999 &#xA;&#9;C383.606384,639.807129 381.244293,645.050903 373.051270,648.158386 &#xA;&#9;C371.523834,648.737793 370.055786,649.598511 368.731934,650.564575 &#xA;&#9;C365.708069,652.770996 362.595123,652.759583 359.296997,651.367310 &#xA;&#9;C355.463226,649.748779 351.618011,648.156616 347.763885,646.587158 &#xA;&#9;C341.520813,644.045044 339.485229,639.195557 342.451355,632.985657 &#xA;&#9;C344.021881,629.697510 346.234100,626.721252 348.063751,623.550537 &#xA;&#9;C351.629669,617.371033 350.447021,615.278625 343.125977,615.126953 &#xA;&#9;C334.796722,614.954346 326.447418,615.288086 318.135010,614.857422 &#xA;&#9;C300.835846,613.961182 284.131409,610.730103 269.098267,601.352234 &#xA;&#9;C263.446899,597.826782 260.283142,593.126526 259.588928,586.435608 &#xA;&#9;C258.834747,579.166565 257.300262,571.991089 256.266205,564.748840 &#xA;&#9;C255.636902,560.341492 252.351364,556.379272 250.775375,552.029907 &#xA;&#9;C243.685410,532.463379 236.787857,512.827148 229.805435,493.221558 &#xA;&#9;C225.727356,481.770874 221.620132,470.330536 217.382095,458.523071 &#xA;M422.884796,402.985229 &#xA;&#9;C420.559937,407.445465 417.261688,407.957153 412.926544,405.805573 &#xA;&#9;C409.443695,404.077057 405.989746,404.027161 402.807922,406.995605 &#xA;&#9;C400.233093,409.397858 396.867126,409.617737 393.453644,409.719757 &#xA;&#9;C389.373749,409.841766 385.466614,411.495239 384.628723,415.646179 &#xA;&#9;C382.857269,424.421692 377.865234,432.127930 376.697754,441.040985 &#xA;&#9;C376.144012,445.268646 374.513275,448.416626 369.514893,448.243317 &#xA;&#9;C368.868378,448.220856 368.130768,448.312256 367.575378,448.611115 &#xA;&#9;C365.228638,449.874054 364.540955,460.298676 366.889160,461.489532 &#xA;&#9;C369.404938,462.765320 369.729126,464.788574 370.156006,466.881561 &#xA;&#9;C369.662140,467.320190 369.376190,467.759216 369.178986,467.722351 &#xA;&#9;C363.425507,466.648621 360.784210,468.704285 360.802277,474.853943 &#xA;&#9;C360.809296,477.251923 358.596313,479.385468 355.461853,478.877228 &#xA;&#9;C352.575409,478.409180 351.174866,476.426910 350.898895,473.696259 &#xA;&#9;C350.767792,472.399170 351.349854,471.027283 351.204071,469.734924 &#xA;&#9;C350.868622,466.761475 350.444519,462.548767 347.111298,462.627258 &#xA;&#9;C340.577728,462.781128 341.406036,459.670990 342.411438,455.419800 &#xA;&#9;C342.935211,453.205200 342.858368,450.776581 342.661102,448.478241 &#xA;&#9;C342.229034,443.443054 339.501984,441.163483 334.357849,441.196167 &#xA;&#9;C333.105072,441.204132 323.370117,448.671875 323.317352,449.827972 &#xA;&#9;C323.282166,450.598480 323.475922,451.895416 323.936462,452.092102 &#xA;&#9;C328.151276,453.892181 328.109344,458.761047 330.735535,461.384613 &#xA;&#9;C333.589935,464.236115 334.096832,466.931885 332.976196,470.281342 &#xA;&#9;C331.895844,473.510406 333.208588,475.699036 335.974274,476.685455 &#xA;&#9;C339.367584,477.895691 340.489685,480.139557 339.967102,483.753693 &#xA;&#9;C343.473572,483.176056 346.544678,484.768616 349.630493,482.876862 &#xA;&#9;C357.084473,478.307343 363.865662,481.605408 363.974945,490.356934 &#xA;&#9;C364.119934,501.967010 369.975403,509.193176 379.994324,513.589294 &#xA;&#9;C382.964569,514.892578 385.411438,516.390320 387.695129,518.769348 &#xA;&#9;C391.101837,522.318420 395.160980,525.069275 400.514984,522.017029 &#xA;&#9;C403.286804,520.436829 404.521362,521.988403 404.963165,524.589355 &#xA;&#9;C405.275635,526.429016 405.411560,528.412476 404.135498,529.870667 &#xA;&#9;C400.809875,533.670898 402.556152,536.991455 405.547180,539.348572 &#xA;&#9;C408.845367,541.947754 412.984375,544.385010 417.318848,542.799988 &#xA;&#9;C424.529968,540.163269 428.937683,542.249573 429.920135,549.765503 &#xA;&#9;C430.276367,552.490784 431.202362,554.834412 433.933929,555.498474 &#xA;&#9;C443.189026,557.748474 451.251221,563.264954 460.663696,565.056152 &#xA;&#9;C466.895386,566.242065 472.165680,569.356873 476.751923,573.651123 &#xA;&#9;C478.138367,574.949341 479.548920,575.827820 481.548553,575.929688 &#xA;&#9;C498.358032,576.785828 515.163757,577.178833 531.974304,575.973389 &#xA;&#9;C534.349121,575.803162 536.530396,575.369141 537.796082,572.960754 &#xA;&#9;C532.532288,568.024902 530.562073,560.903687 524.953430,556.193542 &#xA;&#9;C520.385803,552.357666 520.616272,551.750488 516.777344,556.379578 &#xA;&#9;C516.488953,556.727295 515.982056,556.893799 514.834595,557.603821 &#xA;&#9;C514.346375,551.060730 510.388367,550.742310 505.344086,551.573730 &#xA;&#9;C503.174530,551.931335 500.738159,550.875793 500.878693,547.193237 &#xA;&#9;C505.675171,546.370483 510.371552,545.443298 515.107727,544.816772 &#xA;&#9;C516.826599,544.589417 518.244324,544.522644 519.323669,542.839111 &#xA;&#9;C524.551331,534.684814 529.409119,534.393921 535.347534,542.277283 &#xA;&#9;C537.242615,544.792969 539.534973,545.637878 541.718567,544.695557 &#xA;&#9;C548.552673,541.746216 551.614502,546.627319 554.566406,550.781494 &#xA;&#9;C556.445740,553.426392 558.423340,554.562744 561.168396,553.776917 &#xA;&#9;C567.008240,552.104919 572.732727,553.185730 578.506348,553.859619 &#xA;&#9;C580.128723,554.048889 581.950012,553.844177 582.311707,556.146118 &#xA;&#9;C581.246033,558.399475 579.380493,557.872559 577.571228,557.610046 &#xA;&#9;C570.112366,556.527649 569.643250,556.946472 569.450562,564.506104 &#xA;&#9;C569.404907,566.295898 569.720154,568.458313 567.307373,568.983826 &#xA;&#9;C565.270813,569.427368 563.207703,568.309692 562.886597,566.528259 &#xA;&#9;C561.862183,560.844360 558.119080,558.566528 553.144958,556.786682 &#xA;&#9;C550.954285,556.002869 548.467651,554.822388 546.675049,553.422241 &#xA;&#9;C541.350342,549.263000 534.662170,547.649231 529.385742,543.474854 &#xA;&#9;C527.846313,542.256958 525.503235,541.296021 524.181213,544.336853 &#xA;&#9;C529.539917,546.206665 529.013977,552.779785 533.789307,555.408447 &#xA;&#9;C535.725769,556.474426 538.765503,558.054199 539.769836,560.996155 &#xA;&#9;C540.338257,562.661072 540.714417,564.837036 543.176453,564.656738 &#xA;&#9;C545.617310,564.477844 546.234131,562.438049 546.880493,560.494934 &#xA;&#9;C547.149475,559.686279 546.743652,558.320007 549.094421,558.388855 &#xA;&#9;C546.524597,565.210205 551.186340,569.578857 554.932922,573.969788 &#xA;&#9;C553.227234,575.569946 551.285400,574.180420 549.654297,576.352478 &#xA;&#9;C559.097412,574.532776 567.764282,576.884705 576.556824,576.835693 &#xA;&#9;C602.549255,576.690796 628.547791,576.643066 654.534119,577.105835 &#xA;&#9;C660.585938,577.213562 665.691467,577.407104 668.655884,571.110779 &#xA;&#9;C669.018982,570.339600 670.144653,569.693787 671.042542,569.447021 &#xA;&#9;C675.802856,568.138672 679.685242,565.228577 683.820862,562.755310 &#xA;&#9;C686.423218,561.198975 689.333069,559.687988 692.272766,561.501282 &#xA;&#9;C696.599731,564.170349 698.767029,560.516174 701.318176,558.595215 &#xA;&#9;C703.959595,556.606201 704.236511,553.446777 703.381165,550.383789 &#xA;&#9;C701.351257,543.115234 702.586548,541.016602 709.764587,539.937866 &#xA;&#9;C717.774231,538.734131 720.862854,533.447998 717.907837,526.067078 &#xA;&#9;C715.955505,521.190430 713.754395,516.667664 715.700989,510.839905 &#xA;&#9;C717.844543,504.422241 707.264465,493.054840 700.395569,493.529510 &#xA;&#9;C699.753296,493.573883 699.085571,493.797028 698.504578,494.087128 &#xA;&#9;C695.792358,495.441437 693.454956,494.652649 690.964417,493.066895 &#xA;&#9;C692.064026,489.221161 694.077576,484.777008 697.262085,484.724091 &#xA;&#9;C700.989136,484.662109 703.287964,483.936584 705.463318,481.262360 &#xA;&#9;C706.382751,480.132080 707.823486,480.255585 709.197815,480.493317 &#xA;&#9;C710.517029,480.721588 712.105042,481.011688 712.973816,479.851440 &#xA;&#9;C717.682434,473.563599 724.842957,472.504242 731.731384,471.012482 &#xA;&#9;C735.543701,470.186890 739.137146,467.815186 739.473694,464.748138 &#xA;&#9;C740.112183,458.928955 745.080200,455.615540 746.157471,450.333191 &#xA;&#9;C746.322205,449.525482 746.729919,448.758362 746.830261,447.948303 &#xA;&#9;C747.035583,446.291809 746.223145,445.094849 744.895935,444.162903 &#xA;&#9;C743.445374,443.144348 742.096252,443.370544 740.757446,444.359985 &#xA;&#9;C739.624207,445.197571 738.961487,446.916504 736.283997,446.133698 &#xA;&#9;C738.690186,436.939453 730.541626,432.160004 727.055420,425.174255 &#xA;&#9;C726.684570,424.431152 726.203857,423.704865 726.023560,422.913910 &#xA;&#9;C725.768982,421.797272 725.267822,420.381042 725.708984,419.523407 &#xA;&#9;C727.580688,415.885071 725.610168,411.990112 726.796204,408.273102 &#xA;&#9;C727.526428,405.984589 725.813904,404.089569 723.803162,403.007935 &#xA;&#9;C716.820496,399.251862 709.235840,397.089600 701.403381,397.470673 &#xA;&#9;C696.552734,397.706665 691.867737,398.108521 687.066345,397.051819 &#xA;&#9;C682.822083,396.117767 679.389954,399.619324 675.267578,399.728912 &#xA;&#9;C675.549561,405.451508 670.862366,403.765106 668.234558,403.860657 &#xA;&#9;C663.596252,404.029358 658.995667,403.660919 654.612244,405.676819 &#xA;&#9;C653.495728,406.190247 652.113586,405.864532 651.287903,405.099701 &#xA;&#9;C647.027771,401.153381 641.680054,400.381226 636.284729,399.588989 &#xA;&#9;C634.454529,399.320282 632.708130,398.516510 631.432312,397.155457 &#xA;&#9;C626.554443,391.951630 620.298157,391.043427 613.618225,391.033966 &#xA;&#9;C593.460999,391.005371 573.299011,391.152496 553.157898,390.111603 &#xA;&#9;C550.830261,389.991333 548.239929,390.496246 546.441772,387.689270 &#xA;&#9;C612.972778,384.322083 679.597229,387.389771 746.093811,383.983185 &#xA;&#9;C734.968689,383.320709 723.858276,382.946014 712.274231,381.642700 &#xA;&#9;C713.681519,379.107483 715.046509,379.106049 716.369446,378.954102 &#xA;&#9;C729.674927,377.426025 742.857239,381.525391 756.170776,379.838348 &#xA;&#9;C756.785400,379.760437 757.468262,380.084442 758.098083,380.287201 &#xA;&#9;C760.081848,380.925903 762.280090,381.463501 759.958557,384.347473 &#xA;&#9;C761.120605,384.576141 761.761658,384.801514 762.407104,384.814972 &#xA;&#9;C786.561401,385.319214 810.714844,386.036011 834.456909,380.018585 &#xA;&#9;C842.391541,378.007507 850.329895,376.015778 857.598877,372.233307 &#xA;&#9;C869.495789,366.042664 870.717468,354.776428 860.697876,345.947906 &#xA;&#9;C856.645935,342.377686 851.935791,339.898895 847.041138,337.745483 &#xA;&#9;C832.944641,331.543823 818.152344,327.386230 803.135010,324.453125 &#xA;&#9;C764.283875,316.864929 724.969543,313.961029 685.404053,314.375336 &#xA;&#9;C682.474792,314.406006 679.037231,313.247833 677.630737,317.574982 &#xA;&#9;C677.393677,318.304352 675.277832,318.732697 674.015015,318.768433 &#xA;&#9;C666.290222,318.986786 658.499207,318.185272 650.979797,320.906830 &#xA;&#9;C649.449768,321.460571 647.664185,321.129578 646.121643,320.305603 &#xA;&#9;C641.521118,317.848083 635.210449,321.171783 631.426758,315.956909 &#xA;&#9;C617.139587,316.795227 602.880432,315.410065 588.559204,315.736542 &#xA;&#9;C541.426331,316.811005 494.267242,315.933380 447.119385,316.984894 &#xA;&#9;C409.650177,317.820557 372.162598,317.827240 334.683624,318.241638 &#xA;&#9;C331.561584,318.276154 328.392731,317.842651 324.826569,318.836517 &#xA;&#9;C326.657959,320.997864 323.868256,322.270203 323.916931,324.107727 &#xA;&#9;C328.520142,326.253082 332.837097,319.293854 337.556610,323.592499 &#xA;&#9;C336.247681,326.085815 334.356140,326.136475 332.564484,326.414001 &#xA;&#9;C314.803528,329.165100 296.699280,328.029968 278.967072,331.142395 &#xA;&#9;C277.485382,331.402496 275.823639,331.300232 274.701477,330.183807 &#xA;&#9;C272.838409,328.330353 270.853882,328.902679 268.685059,329.298126 &#xA;&#9;C264.227417,330.110901 259.734406,330.546143 255.253662,328.872040 &#xA;&#9;C268.186737,324.654633 282.375885,326.668365 295.923340,320.256531 &#xA;&#9;C273.558411,319.872345 252.637131,322.907867 231.693405,325.796326 &#xA;&#9;C216.575378,327.881378 202.009506,331.816895 188.121872,338.151917 &#xA;&#9;C181.790222,341.040192 176.574142,344.943573 173.474030,351.680389 &#xA;&#9;C170.237656,358.713318 172.656342,363.468323 180.596710,363.907898 &#xA;&#9;C187.790405,364.306183 189.883041,365.755371 190.397858,370.681305 &#xA;&#9;C188.206818,371.438141 186.627029,368.376801 184.306000,369.667877 &#xA;&#9;C187.137161,374.214783 196.412048,377.854065 201.085434,376.063080 &#xA;&#9;C204.401962,374.792084 207.811737,374.276062 210.632507,376.398346 &#xA;&#9;C215.442596,380.017242 220.721024,381.123413 226.517914,380.867554 &#xA;&#9;C229.669647,380.728455 232.909637,380.167480 235.944794,381.294189 &#xA;&#9;C249.284973,386.246185 263.409546,385.274658 277.193878,386.605499 &#xA;&#9;C285.082336,387.367096 293.230499,386.048615 301.117981,386.399780 &#xA;&#9;C318.110718,387.156281 335.069855,386.237854 352.038666,386.622498 &#xA;&#9;C359.181641,386.784454 366.335785,386.372681 373.485291,386.347839 &#xA;&#9;C381.337250,386.320557 389.160889,385.058289 397.061554,386.316071 &#xA;&#9;C399.880035,386.764771 403.107819,386.723541 405.753906,384.944855 &#xA;&#9;C407.502716,383.769348 409.301910,383.550537 410.824890,384.875000 &#xA;&#9;C413.078552,386.834900 415.676544,386.875031 418.342743,386.806152 &#xA;&#9;C425.976959,386.608978 433.606384,386.676514 441.243805,386.740234 &#xA;&#9;C465.381989,386.941681 489.522949,386.794067 513.662720,386.846741 &#xA;&#9;C515.669189,386.851105 517.902344,386.297394 520.318298,388.270813 &#xA;&#9;C515.809387,390.975586 511.254395,390.635437 506.940613,391.016541 &#xA;&#9;C496.710022,391.920258 486.684326,392.398041 476.916718,397.063019 &#xA;&#9;C468.755920,400.960602 459.736145,405.342499 449.918640,400.897369 &#xA;&#9;C449.012115,400.486908 447.584900,400.902100 446.506866,401.258606 &#xA;&#9;C443.809723,402.150513 441.317200,401.903839 438.785736,400.642578 &#xA;&#9;C436.774628,399.640594 434.651733,398.966064 433.159149,401.580688 &#xA;&#9;C430.465759,406.298737 427.116272,405.714569 422.884796,402.985229 &#xA;M535.669617,582.462830 &#xA;&#9;C524.528137,582.489624 513.397888,582.335938 502.243256,582.762939 &#xA;&#9;C496.239349,582.992737 490.336578,581.192688 486.331390,587.834595 &#xA;&#9;C487.887024,589.927917 490.037170,591.515015 492.495026,593.045288 &#xA;&#9;C501.260834,598.502930 510.998596,598.485229 520.471130,597.341248 &#xA;&#9;C533.047607,595.822449 545.145996,600.520691 557.604004,599.085022 &#xA;&#9;C558.505432,598.981140 559.474731,599.759705 560.447083,599.928162 &#xA;&#9;C565.153748,600.743469 569.882996,602.149048 574.583557,602.072876 &#xA;&#9;C579.105103,601.999573 583.178040,602.676758 587.054321,604.742371 &#xA;&#9;C589.620544,606.109863 592.276794,606.970520 595.158569,606.898499 &#xA;&#9;C598.850647,606.806274 602.391235,607.121887 605.922058,608.479797 &#xA;&#9;C608.900391,609.625366 611.998474,609.304810 614.827515,607.359375 &#xA;&#9;C613.344116,604.807922 610.453674,604.993835 609.020142,603.172180 &#xA;&#9;C609.524292,596.536987 610.235962,595.536499 618.932434,593.900818 &#xA;&#9;C619.748169,593.747314 620.766907,593.870117 621.348938,593.420898 &#xA;&#9;C623.501221,591.759644 628.168396,592.733276 627.630127,588.331421 &#xA;&#9;C627.078186,583.818115 623.233704,582.907837 619.457825,582.456238 &#xA;&#9;C618.331238,582.321594 617.147400,582.765564 615.992615,582.749146 &#xA;&#9;C607.707703,582.631104 599.524109,585.002869 591.240723,584.058228 &#xA;&#9;C573.040161,581.982727 554.777344,582.758606 535.669617,582.462830 &#xA;M816.298035,453.939484 &#xA;&#9;C816.437561,451.949249 816.678711,449.959686 816.691528,447.968658 &#xA;&#9;C816.708435,445.336731 815.427368,443.542847 812.674744,444.425781 &#xA;&#9;C808.114685,445.888397 805.387024,443.550476 802.846802,440.435181 &#xA;&#9;C800.894409,438.040924 798.482788,437.718597 795.651184,438.598297 &#xA;&#9;C792.793335,439.486115 790.595276,441.243805 790.972900,444.249481 &#xA;&#9;C791.752319,450.452301 788.307617,453.941254 783.937683,457.257751 &#xA;&#9;C781.826782,458.859741 779.720459,461.085358 780.969910,464.055969 &#xA;&#9;C783.176636,469.302643 783.268982,474.070465 779.525085,478.722992 &#xA;&#9;C778.145508,480.437347 777.983459,482.771423 778.366394,484.965302 &#xA;&#9;C779.498169,491.449310 779.077576,497.810211 777.765259,504.264252 &#xA;&#9;C777.202576,507.031616 776.414856,510.450012 778.970947,512.909790 &#xA;&#9;C780.993347,512.592529 781.489990,510.136810 783.226746,510.556976 &#xA;&#9;C785.766785,511.467072 783.697266,514.293762 786.268494,515.564209 &#xA;&#9;C789.358887,510.389313 794.500854,506.947113 798.809204,502.830872 &#xA;&#9;C805.375610,496.557281 807.153870,488.270660 809.856323,481.019592 &#xA;&#9;C812.894348,472.868103 817.027771,464.224884 816.298035,453.939484 &#xA;M854.938660,328.412537 &#xA;&#9;C854.046387,330.425751 851.165710,332.658569 853.222107,334.556610 &#xA;&#9;C856.822449,337.879730 860.929871,341.656128 865.675110,342.248108 &#xA;&#9;C869.043274,342.668335 869.957947,337.376404 872.053894,334.704163 &#xA;&#9;C874.405334,331.706268 874.045837,329.387238 870.567749,327.460510 &#xA;&#9;C868.254761,326.179199 866.117981,324.550049 864.009705,322.936279 &#xA;&#9;C861.444763,320.972870 859.452515,321.475037 857.765625,324.052399 &#xA;&#9;C856.946899,325.303284 856.128723,326.554596 854.938660,328.412537 &#xA;M176.455536,339.934601 &#xA;&#9;C179.065536,338.180695 181.660706,336.404083 184.291397,334.681763 &#xA;&#9;C185.750320,333.726624 187.196716,332.625305 186.536072,330.714874 &#xA;&#9;C185.446289,327.563446 184.012665,324.238831 181.022186,322.708282 &#xA;&#9;C178.234299,321.281433 176.247131,324.184998 174.171738,325.665894 &#xA;&#9;C172.016617,327.203827 170.086517,329.055664 167.941879,330.609985 &#xA;&#9;C163.443207,333.870361 165.979141,336.689941 168.238144,339.764099 &#xA;&#9;C170.662323,343.063049 173.083618,343.470673 176.455536,339.934601 &#xA;M279.633148,423.202362 &#xA;&#9;C276.486816,423.615662 272.821350,422.570740 270.979736,426.517792 &#xA;&#9;C269.410339,429.881378 270.102234,433.390656 270.366547,436.800720 &#xA;&#9;C270.518433,438.760437 272.230988,439.004059 273.671173,437.711639 &#xA;&#9;C274.614166,436.865417 274.849182,435.283600 276.537750,434.989960 &#xA;&#9;C279.542084,435.689819 280.356262,438.788696 282.328217,440.679077 &#xA;&#9;C283.546234,441.846710 284.991699,442.959686 286.744232,442.195404 &#xA;&#9;C288.500305,441.429596 288.069092,439.627014 287.799866,438.233521 &#xA;&#9;C287.046753,434.335541 286.140106,430.465698 285.226227,426.600830 &#xA;&#9;C284.635498,424.102661 282.865417,423.150574 279.633148,423.202362 &#xA;M774.379944,498.045959 &#xA;&#9;C772.903625,496.681488 771.578735,497.267090 770.794067,498.686310 &#xA;&#9;C769.925659,500.257111 769.534729,502.035553 771.702637,503.254028 &#xA;&#9;C773.658386,502.310822 774.622742,500.809784 774.379944,498.045959 &#xA;M775.179932,494.241669 &#xA;&#9;C777.249268,492.861786 777.552063,491.313629 775.803101,489.442932 &#xA;&#9;C771.807739,491.938354 771.757507,492.166473 775.179932,494.241669 &#xA;z"/>
<path fill="#f0cc29" opacity="1.000000" stroke="none" d="&#xA;M690.557556,735.294434 &#xA;&#9;C684.334229,731.464233 681.276550,733.101868 681.208008,739.975891 &#xA;&#9;C681.151550,745.636414 681.212280,751.298035 681.215454,756.959167 &#xA;&#9;C681.220398,765.715332 681.218384,765.715332 688.638855,770.607422 &#xA;&#9;C685.802795,772.932556 666.190735,773.073975 662.362793,770.791870 &#xA;&#9;C662.552734,769.330322 663.820618,769.147339 664.861328,768.708374 &#xA;&#9;C668.154968,767.319031 669.700745,764.782532 669.701904,761.271179 &#xA;&#9;C669.708923,740.624939 669.700562,719.978760 669.705200,699.332520 &#xA;&#9;C669.705933,695.979004 668.266846,693.581177 665.098938,692.350891 &#xA;&#9;C664.005493,691.926331 662.824097,691.682129 662.653015,690.091858 &#xA;&#9;C663.573181,687.893982 665.734070,688.513123 667.356384,688.503540 &#xA;&#9;C677.831970,688.441284 688.318176,688.296204 698.782471,688.679871 &#xA;&#9;C710.099792,689.094788 718.310303,695.350708 720.087158,704.205017 &#xA;&#9;C722.397827,715.719604 717.973389,724.261719 706.583618,729.602417 &#xA;&#9;C703.086487,731.242249 702.539307,733.087280 704.703430,736.134155 &#xA;&#9;C710.775208,744.682861 716.742371,753.306213 722.858887,761.822571 &#xA;&#9;C725.026611,764.840759 727.918213,767.096008 731.428650,768.478271 &#xA;&#9;C732.610901,768.943909 734.135376,769.056458 734.170593,770.855408 &#xA;&#9;C727.422791,774.456970 716.672913,772.403442 712.595215,766.636353 &#xA;&#9;C705.291931,756.307068 698.066162,745.923096 690.557556,735.294434 &#xA;M703.442261,698.017151 &#xA;&#9;C697.780640,693.226074 690.999573,694.068787 684.383484,694.353333 &#xA;&#9;C681.801575,694.464417 681.322327,696.631714 681.311340,698.732178 &#xA;&#9;C681.268616,706.882690 681.276306,715.033752 681.313660,723.184326 &#xA;&#9;C681.327576,726.213074 682.966187,727.873962 685.973511,727.813904 &#xA;&#9;C688.619019,727.761169 691.338501,727.722229 693.886841,727.105103 &#xA;&#9;C708.492676,723.567993 713.467102,709.338562 703.442261,698.017151 &#xA;z"/>
<path fill="#f0cc29" opacity="1.000000" stroke="none" d="&#xA;M314.672791,751.948547 &#xA;&#9;C314.673370,750.132874 314.621490,748.797913 314.683594,747.468323 &#xA;&#9;C314.962982,741.486389 315.252625,735.515625 307.343109,733.371338 &#xA;&#9;C311.494934,730.298889 327.714752,730.052734 332.436707,732.659363 &#xA;&#9;C323.016174,737.337646 325.914093,745.924744 326.538788,752.964172 &#xA;&#9;C327.360992,762.229004 323.404724,766.471619 315.490021,769.591431 &#xA;&#9;C295.072937,777.639160 266.765228,774.224121 254.547043,752.494568 &#xA;&#9;C245.682495,736.729370 245.294998,720.132690 254.701172,704.476990 &#xA;&#9;C264.503601,688.161804 280.335693,683.222778 298.501221,684.197571 &#xA;&#9;C306.933014,684.649963 314.667114,687.910278 322.577545,690.447998 &#xA;&#9;C323.780304,690.833862 324.947510,691.263123 324.971497,692.601929 &#xA;&#9;C325.074432,698.352112 325.748566,704.166809 323.974579,709.681702 &#xA;&#9;C321.585083,709.920471 321.452148,708.362305 321.054016,707.165771 &#xA;&#9;C317.411133,696.216797 310.736237,691.317932 299.103302,690.278748 &#xA;&#9;C271.046631,687.772461 258.060211,711.064636 260.676086,733.629395 &#xA;&#9;C261.553009,741.193665 264.372955,748.110474 268.753601,754.358154 &#xA;&#9;C277.373077,766.651184 294.482147,771.244080 308.505005,765.885681 &#xA;&#9;C315.658325,763.152161 314.738251,757.868896 314.672791,751.948547 &#xA;z"/>
<path fill="#f0cc29" opacity="1.000000" stroke="none" d="&#xA;M415.184692,772.034302 &#xA;&#9;C412.654236,770.104919 414.494232,769.424988 415.817719,768.841919 &#xA;&#9;C420.013489,766.993225 420.258331,763.966003 418.684204,760.205688 &#xA;&#9;C416.564606,755.142456 414.465973,750.067993 412.499756,744.944092 &#xA;&#9;C411.453308,742.217041 409.688385,741.189148 406.786469,741.238831 &#xA;&#9;C399.133118,741.369751 391.475067,741.342834 383.820740,741.240234 &#xA;&#9;C381.119202,741.204041 379.470734,742.240295 378.471741,744.743958 &#xA;&#9;C376.376617,749.994629 374.232086,755.229004 371.949554,760.400269 &#xA;&#9;C370.027313,764.755310 370.662445,767.822510 375.667084,769.167114 &#xA;&#9;C376.503326,769.391785 377.121643,769.945923 377.127869,771.708191 &#xA;&#9;C370.016876,772.816162 362.889832,772.212280 356.027191,771.993530 &#xA;&#9;C355.489716,770.065002 356.027679,769.372620 356.792145,769.038879 &#xA;&#9;C361.109985,767.153992 363.229645,763.428772 364.982849,759.399231 &#xA;&#9;C372.946014,741.096252 380.897217,722.788025 388.842224,704.477173 &#xA;&#9;C390.884552,699.770386 394.097321,695.096924 387.610046,689.623352 &#xA;&#9;C393.153839,689.881714 396.875336,690.098633 400.598755,689.975159 &#xA;&#9;C403.527679,689.877991 403.847382,693.036743 404.658173,695.043152 &#xA;&#9;C411.634857,712.308838 418.459961,729.635742 425.362244,746.931519 &#xA;&#9;C427.335022,751.874878 429.619049,756.704041 431.378784,761.719421 &#xA;&#9;C432.889740,766.025818 436.703247,768.065613 439.864136,771.128906 &#xA;&#9;C431.602509,772.781738 423.561218,772.060486 415.184692,772.034302 &#xA;M387.086060,734.969727 &#xA;&#9;C392.747192,734.976257 398.408386,734.998352 404.069458,734.983337 &#xA;&#9;C407.252655,734.974915 408.267975,733.505798 407.062866,730.495911 &#xA;&#9;C404.217041,723.388062 401.418060,716.261536 398.584900,709.148621 &#xA;&#9;C398.148895,708.053955 397.621918,706.880676 396.310181,706.725647 &#xA;&#9;C394.613068,706.525024 394.067047,707.979248 393.560791,709.170654 &#xA;&#9;C390.631500,716.063477 387.735352,722.970825 384.899475,729.902527 &#xA;&#9;C384.123810,731.798523 383.469086,733.829956 387.086060,734.969727 &#xA;z"/>
<path fill="#f0cc29" opacity="1.000000" stroke="none" d="&#xA;M636.513306,699.480042 &#xA;&#9;C635.331482,696.198608 633.102417,695.151672 630.146179,695.160950 &#xA;&#9;C623.649658,695.181213 617.152344,695.206421 610.656738,695.121765 &#xA;&#9;C607.427307,695.079651 606.198303,696.653076 606.213501,699.716553 &#xA;&#9;C606.249084,706.879761 606.260010,714.044250 606.154785,721.206421 &#xA;&#9;C606.103699,724.683533 607.833496,725.998901 611.069458,725.919983 &#xA;&#9;C612.401062,725.887512 613.734558,725.939026 615.067078,725.934204 &#xA;&#9;C624.550720,725.900208 624.550720,725.898682 629.838684,719.102234 &#xA;&#9;C632.574646,721.985352 632.961914,734.116760 630.021423,739.085693 &#xA;&#9;C626.397034,729.147522 618.200073,732.700073 611.349731,732.212402 &#xA;&#9;C608.165771,731.985779 606.259155,733.504028 606.253601,736.886414 &#xA;&#9;C606.239807,745.215759 606.265259,753.545105 606.231567,761.874329 &#xA;&#9;C606.219177,764.926819 607.910339,765.953369 610.672974,765.927612 &#xA;&#9;C618.168762,765.857727 625.665466,765.852417 633.160583,765.741211 &#xA;&#9;C636.920105,765.685425 639.236145,763.539551 640.823975,760.269470 &#xA;&#9;C641.544067,758.786377 641.560303,756.472168 644.781982,756.553528 &#xA;&#9;C645.776001,761.706787 644.254456,766.508240 642.564270,771.243103 &#xA;&#9;C642.220825,772.205200 640.885681,772.216675 639.882568,772.216919 &#xA;&#9;C623.390381,772.221008 606.898254,772.216858 590.406128,772.175537 &#xA;&#9;C589.828735,772.174072 589.252441,771.769348 588.721130,771.569641 &#xA;&#9;C588.638306,769.268250 590.517578,769.138184 591.640686,768.389771 &#xA;&#9;C594.250122,766.650818 595.397461,764.201721 595.384888,761.191101 &#xA;&#9;C595.308289,742.870056 595.255432,724.548584 595.054932,706.228699 &#xA;&#9;C594.988098,700.123901 597.065735,693.028687 588.313965,690.766968 &#xA;&#9;C589.822632,688.105774 591.684204,688.777161 593.212646,688.769226 &#xA;&#9;C607.039917,688.697510 620.870239,688.855713 634.693542,688.606079 &#xA;&#9;C639.122070,688.526123 640.742676,690.039917 640.376221,694.370422 &#xA;&#9;C640.117432,697.429932 640.326111,700.528931 640.326111,703.842163 &#xA;&#9;C637.062134,703.539246 637.152161,701.443298 636.513306,699.480042 &#xA;z"/>
<path fill="#f0cc29" opacity="1.000000" stroke="none" d="&#xA;M609.551086,836.417847 &#xA;&#9;C616.533936,839.490051 623.366638,841.338989 630.721191,840.918396 &#xA;&#9;C637.709839,840.518738 643.325317,838.055115 646.417847,831.340271 &#xA;&#9;C646.688904,830.751831 647.099487,830.209534 647.530945,829.721375 &#xA;&#9;C647.721375,829.505920 648.126160,829.479919 648.617798,829.300720 &#xA;&#9;C650.803406,831.464050 649.448425,833.629028 648.314514,835.523132 &#xA;&#9;C644.470520,841.944153 638.460632,844.678711 631.207031,845.091492 &#xA;&#9;C622.668518,845.577515 614.662964,843.379395 607.008240,839.905029 &#xA;&#9;C600.794312,837.084534 594.663391,834.046387 588.673035,830.779602 &#xA;&#9;C584.322327,828.407104 579.536316,829.521606 575.030579,828.422363 &#xA;&#9;C571.322510,827.517761 567.500183,827.037842 563.916321,825.645691 &#xA;&#9;C562.469238,825.083557 560.526062,824.883606 560.585388,822.610229 &#xA;&#9;C561.613647,820.986877 562.965515,821.680115 564.150452,822.121277 &#xA;&#9;C566.984375,823.176514 569.929871,823.615723 572.888977,824.130615 &#xA;&#9;C576.652161,824.785339 578.143799,824.177734 577.119324,819.801697 &#xA;&#9;C575.910522,814.638672 579.279846,810.150879 585.478760,807.878784 &#xA;&#9;C596.522644,803.830872 607.835999,802.733521 619.380188,805.355469 &#xA;&#9;C625.872620,806.830078 632.368713,808.320190 638.783630,810.091370 &#xA;&#9;C641.903015,810.952515 644.546875,810.561035 647.421570,809.204590 &#xA;&#9;C659.314636,803.592957 670.833008,797.140442 683.320923,792.847290 &#xA;&#9;C690.124146,790.508362 697.007568,788.679077 704.360474,789.698914 &#xA;&#9;C711.965820,790.753845 718.165649,795.406189 719.240784,801.146851 &#xA;&#9;C720.536438,808.065369 717.033875,815.534912 710.199219,819.110107 &#xA;&#9;C700.260254,824.309265 689.504700,825.117249 678.563171,823.811340 &#xA;&#9;C668.452698,822.604492 658.559448,820.262512 648.922302,816.999878 &#xA;&#9;C645.576477,815.867126 642.641174,815.753113 639.340881,817.199402 &#xA;&#9;C626.612183,822.777222 613.252502,826.224243 599.566223,828.496460 &#xA;&#9;C598.506958,828.672363 597.233521,828.647156 596.159424,830.241211 &#xA;&#9;C600.574890,832.281311 604.887573,834.273865 609.551086,836.417847 &#xA;M699.465332,793.182068 &#xA;&#9;C681.474304,794.662659 666.732056,804.214050 651.135437,811.950684 &#xA;&#9;C652.193298,813.795532 653.526672,814.158936 654.776245,814.496765 &#xA;&#9;C664.730957,817.187866 674.734741,819.665649 685.123962,819.874817 &#xA;&#9;C693.345093,820.040405 701.471802,819.531616 708.701721,814.980530 &#xA;&#9;C712.742737,812.436829 715.323059,808.651611 715.354309,803.907593 &#xA;&#9;C715.379639,800.067627 713.259583,796.974060 709.500916,795.331360 &#xA;&#9;C706.576172,794.053223 703.580017,793.124756 699.465332,793.182068 &#xA;M614.010864,808.363647 &#xA;&#9;C610.355469,808.258728 606.700562,808.090637 603.044556,808.063538 &#xA;&#9;C597.488464,808.022339 592.057678,808.909302 587.087891,811.434509 &#xA;&#9;C584.135498,812.934570 580.763611,814.953796 581.626038,818.879639 &#xA;&#9;C582.515686,822.929810 585.737793,825.192993 589.966064,825.612732 &#xA;&#9;C591.110474,825.726379 592.303467,825.648560 593.443176,825.465515 &#xA;&#9;C602.635498,823.989014 611.785645,822.253052 620.701233,819.556763 &#xA;&#9;C625.502441,818.104675 630.506714,816.964844 635.296509,813.620056 &#xA;&#9;C628.237854,811.005249 621.475769,810.096375 614.010864,808.363647 &#xA;z"/>
<path fill="#f0cc29" opacity="1.000000" stroke="none" d="&#xA;M807.006165,688.613220 &#xA;&#9;C811.156677,689.003540 815.003479,687.765747 818.456116,689.465820 &#xA;&#9;C818.482056,690.011963 818.547791,690.281494 818.488831,690.312256 &#xA;&#9;C808.158447,695.708252 805.455139,706.950256 799.083252,715.385376 &#xA;&#9;C790.097839,727.280151 786.415100,740.300964 788.225830,755.014038 &#xA;&#9;C788.468018,756.982300 788.287537,759.005249 788.268372,761.002502 &#xA;&#9;C788.231018,764.887146 789.556702,767.819336 793.622559,768.954895 &#xA;&#9;C794.590210,769.225098 795.502380,769.683899 795.674988,771.606079 &#xA;&#9;C787.011414,771.606079 778.407043,771.606079 769.797607,771.606079 &#xA;&#9;C769.797607,770.866638 769.746582,770.586792 769.804871,770.561829 &#xA;&#9;C777.794983,767.134399 776.349670,760.113464 776.932800,753.406372 &#xA;&#9;C778.022644,740.871521 775.177979,729.836853 767.577393,719.789795 &#xA;&#9;C764.588013,715.838318 762.603394,711.142578 759.928711,706.933472 &#xA;&#9;C756.001465,700.753052 753.204712,693.616455 745.667297,689.907288 &#xA;&#9;C754.957458,688.404297 763.760803,688.024475 772.639954,689.012146 &#xA;&#9;C772.569031,689.874512 772.621582,690.108093 772.532776,690.191772 &#xA;&#9;C766.594360,695.787415 766.582214,695.792480 770.962280,703.614075 &#xA;&#9;C774.213806,709.420410 777.444519,715.239563 780.785828,720.994141 &#xA;&#9;C783.483643,725.640381 785.530701,725.776917 788.246765,721.283325 &#xA;&#9;C792.290527,714.593140 796.205566,707.816101 799.914490,700.935425 &#xA;&#9;C803.040527,695.135864 802.822998,694.908813 797.020386,691.542969 &#xA;&#9;C796.652893,691.329895 796.493103,690.758972 796.055115,690.068176 &#xA;&#9;C799.342773,687.481079 803.099731,689.067566 807.006165,688.613220 &#xA;z"/>
<path fill="#f0cc29" opacity="1.000000" stroke="none" d="&#xA;M453.214478,805.460083 &#xA;&#9;C456.323761,806.400330 459.137299,806.984558 461.688934,808.144714 &#xA;&#9;C469.458374,811.677185 470.614563,815.385132 467.238251,825.424377 &#xA;&#9;C473.278534,826.627319 478.780029,823.012268 484.645844,823.271729 &#xA;&#9;C485.268158,826.449707 482.819061,826.380310 481.337494,826.920227 &#xA;&#9;C475.633179,828.998840 469.661163,829.623474 463.639618,829.451477 &#xA;&#9;C460.845276,829.371643 458.534210,830.214294 456.087677,831.435669 &#xA;&#9;C444.943115,836.999451 434.086517,843.381348 421.350250,844.818970 &#xA;&#9;C414.707031,845.568726 408.316345,844.767090 402.765198,840.778259 &#xA;&#9;C399.080170,838.130371 396.377563,834.734253 396.730560,829.788391 &#xA;&#9;C399.313293,829.189026 399.910706,830.683899 400.479614,832.057373 &#xA;&#9;C402.979065,838.091614 408.086456,840.253540 413.990906,840.739807 &#xA;&#9;C427.243958,841.831238 438.437469,836.015381 450.662079,829.553528 &#xA;&#9;C443.151154,827.805420 436.753265,826.399841 430.399597,824.816833 &#xA;&#9;C422.311371,822.801514 414.411224,820.158630 406.771698,816.834106 &#xA;&#9;C403.993164,815.625000 401.516602,815.569885 398.634460,816.438293 &#xA;&#9;C384.762207,820.617676 370.819672,824.587341 356.116241,824.195068 &#xA;&#9;C350.252533,824.038574 344.578705,822.749512 339.101044,820.650696 &#xA;&#9;C335.258820,819.178406 332.146973,816.719238 329.813843,813.347778 &#xA;&#9;C323.900116,804.802307 326.756805,795.175659 336.373779,791.266418 &#xA;&#9;C346.986908,786.952271 357.052490,790.173035 366.908966,793.932068 &#xA;&#9;C376.396484,797.550415 385.651184,801.827087 394.390991,806.993347 &#xA;&#9;C400.135895,810.389282 405.524048,810.725037 411.889252,808.878967 &#xA;&#9;C423.578430,805.488770 435.559753,803.384949 447.860474,804.697632 &#xA;&#9;C449.511658,804.873901 451.153046,805.141968 453.214478,805.460083 &#xA;M375.829926,818.411804 &#xA;&#9;C382.380829,816.470459 389.326782,815.771912 396.516693,812.309265 &#xA;&#9;C381.783905,805.674805 369.112122,797.115112 354.038239,793.947998 &#xA;&#9;C349.058746,792.901733 344.134735,792.680481 339.268646,794.294983 &#xA;&#9;C330.372040,797.246704 328.275696,806.751038 335.108307,813.204346 &#xA;&#9;C338.351898,816.267944 342.432892,817.770203 346.704132,818.669922 &#xA;&#9;C356.126129,820.654541 365.562988,819.981018 375.829926,818.411804 &#xA;M419.844849,817.604919 &#xA;&#9;C431.433014,821.421143 443.312378,823.862854 455.417236,825.333191 &#xA;&#9;C460.251190,825.920471 463.119690,823.336731 464.761414,819.468811 &#xA;&#9;C466.430634,815.536072 462.991608,813.863770 460.380432,812.154419 &#xA;&#9;C459.005157,811.254028 457.449097,810.519287 455.873077,810.053223 &#xA;&#9;C440.341614,805.459900 425.558472,809.612671 409.331177,813.672485 &#xA;&#9;C413.524109,815.256653 416.312836,816.310364 419.844849,817.604919 &#xA;z"/>
<path fill="#f0cc29" opacity="1.000000" stroke="none" d="&#xA;M566.187744,851.101440 &#xA;&#9;C560.331238,855.440918 556.467651,855.900879 552.213806,853.011780 &#xA;&#9;C547.870728,850.062317 546.652588,845.777649 548.839844,839.255310 &#xA;&#9;C549.679749,836.750793 549.043457,835.486633 546.904602,834.506531 &#xA;&#9;C546.147583,834.159668 545.434509,833.656494 544.642761,833.456177 &#xA;&#9;C541.844971,832.747986 539.640381,828.543396 536.786987,830.516357 &#xA;&#9;C533.328613,832.907532 530.472656,836.489258 529.362000,840.838684 &#xA;&#9;C528.898499,842.653809 528.967224,844.719971 526.677063,845.048889 &#xA;&#9;C524.278809,845.393311 523.866028,843.349060 523.161072,841.613403 &#xA;&#9;C520.929504,836.119080 515.660950,833.838501 511.244781,830.684753 &#xA;&#9;C510.390930,830.075073 509.308868,830.454224 508.372284,830.880005 &#xA;&#9;C504.902283,832.457947 501.432861,834.037170 497.674194,835.747375 &#xA;&#9;C498.569916,837.546082 499.460632,839.099609 500.139160,840.740784 &#xA;&#9;C502.342621,846.070496 499.721680,851.769958 494.041595,854.156555 &#xA;&#9;C488.845642,856.339600 482.542664,853.714417 479.814575,848.230896 &#xA;&#9;C477.300659,843.177856 479.086609,837.900391 484.416504,835.312195 &#xA;&#9;C487.686951,833.724182 490.406525,831.328430 494.884399,832.008423 &#xA;&#9;C498.128754,832.501038 501.854980,830.341370 505.090851,827.850281 &#xA;&#9;C503.624176,825.668945 501.206116,825.279236 499.283569,824.188599 &#xA;&#9;C496.814148,822.787842 494.265411,821.502563 492.869537,818.830933 &#xA;&#9;C491.561523,816.327454 491.714203,813.924500 493.826355,811.994629 &#xA;&#9;C495.988800,810.018738 498.638824,809.609497 501.245911,810.963623 &#xA;&#9;C503.816010,812.298462 504.471344,814.528442 503.594696,817.328857 &#xA;&#9;C503.095337,818.924072 501.502411,820.806519 503.898987,822.166565 &#xA;&#9;C506.441254,823.609253 508.907654,825.893860 512.163635,824.196594 &#xA;&#9;C513.922729,823.279663 515.515259,822.032776 517.146545,820.883179 &#xA;&#9;C522.784912,816.909607 522.778809,816.901001 519.618225,810.748962 &#xA;&#9;C516.041138,803.786316 517.556641,797.585754 523.317078,795.615356 &#xA;&#9;C528.588135,793.812378 533.177734,796.830444 533.536743,802.388855 &#xA;&#9;C533.784424,806.224304 532.418640,809.691895 530.280884,812.685364 &#xA;&#9;C528.076050,815.772827 528.986084,817.545593 531.667847,819.652039 &#xA;&#9;C538.280945,824.845947 544.090637,822.699890 545.819092,814.201843 &#xA;&#9;C546.339233,811.644470 547.754700,810.011780 550.417114,809.653687 &#xA;&#9;C552.675293,809.350098 554.463013,810.169922 555.181885,812.355347 &#xA;&#9;C556.002197,814.849121 555.120056,817.064575 552.987671,818.483521 &#xA;&#9;C549.281067,820.950134 544.899841,822.404053 541.334351,826.413269 &#xA;&#9;C545.844543,829.393066 549.131592,833.455017 555.767822,831.207581 &#xA;&#9;C562.002625,829.096191 570.881775,840.364746 568.601074,846.912781 &#xA;&#9;C568.118591,848.297974 567.179321,849.523987 566.187744,851.101440 &#xA;M529.153687,822.496948 &#xA;&#9;C527.980286,821.604187 526.806885,820.711426 525.342285,819.597107 &#xA;&#9;C521.778809,822.281921 518.296265,824.905701 514.375000,827.859985 &#xA;&#9;C517.166321,829.972107 519.385010,831.665100 521.618713,833.338074 &#xA;&#9;C526.211975,836.778320 526.492676,836.528198 532.197144,829.362305 &#xA;&#9;C535.365417,825.382263 531.250122,824.769653 529.153687,822.496948 &#xA;M490.275238,850.712097 &#xA;&#9;C492.548615,850.439148 494.332092,849.355530 495.569305,847.431030 &#xA;&#9;C497.515839,844.403320 495.115662,838.028564 491.900055,837.638794 &#xA;&#9;C488.783508,837.260986 483.515778,840.318787 483.242950,842.886292 &#xA;&#9;C482.756134,847.466675 484.953400,850.094238 490.275238,850.712097 &#xA;M555.491333,850.068726 &#xA;&#9;C556.452820,850.266968 557.456970,850.749268 558.367981,850.612122 &#xA;&#9;C561.549805,850.133423 564.019592,848.586487 564.739685,845.198730 &#xA;&#9;C565.336243,842.392273 564.265808,840.164612 561.629639,839.110718 &#xA;&#9;C559.317993,838.186646 556.800232,835.982849 554.345886,838.623596 &#xA;&#9;C552.010742,841.135864 551.390442,844.181458 552.961853,847.380493 &#xA;&#9;C553.383789,848.239380 554.224243,848.892700 555.491333,850.068726 &#xA;M524.508606,799.277222 &#xA;&#9;C520.294739,803.864258 520.503235,806.592957 525.627441,811.969421 &#xA;&#9;C528.109070,809.778748 529.380554,806.948242 529.634521,803.779541 &#xA;&#9;C529.877014,800.754456 528.751770,798.554749 524.508606,799.277222 &#xA;z"/>
<path fill="#f0cc29" opacity="1.000000" stroke="none" d="&#xA;M521.946289,752.971069 &#xA;&#9;C521.973938,737.326172 522.005554,722.176025 522.027954,707.025879 &#xA;&#9;C522.043823,696.319702 522.038208,696.319702 514.673523,689.445129 &#xA;&#9;C523.540344,688.158203 531.747437,688.715454 540.002136,688.981506 &#xA;&#9;C540.002136,689.955322 540.101379,690.513306 539.987976,690.560486 &#xA;&#9;C533.379700,693.310364 533.080139,698.753540 533.172302,704.911926 &#xA;&#9;C533.438782,722.721985 533.257141,740.538574 533.274475,758.352600 &#xA;&#9;C533.281372,765.444275 533.635376,765.788086 540.487488,765.799072 &#xA;&#9;C545.315552,765.806763 550.148682,765.652039 554.970337,765.825439 &#xA;&#9;C560.587036,766.027222 564.664368,764.009399 566.796448,758.612915 &#xA;&#9;C567.220215,757.540283 567.774170,756.504150 569.075928,756.233093 &#xA;&#9;C570.280151,758.668823 569.224731,769.801758 567.534485,771.294250 &#xA;&#9;C566.864136,771.886169 565.730103,772.216614 564.806335,772.218384 &#xA;&#9;C548.991089,772.247986 533.175842,772.214844 517.360657,772.152100 &#xA;&#9;C516.790771,772.149841 516.222595,771.703918 514.094543,770.809326 &#xA;&#9;C524.006104,767.452515 521.742920,760.029236 521.946289,752.971069 &#xA;z"/>
<path fill="#f0cc29" opacity="1.000000" stroke="none" d="&#xA;M480.929718,691.945251 &#xA;&#9;C476.907867,693.216858 476.042267,696.032654 475.854950,699.461731 &#xA;&#9;C474.919006,716.596008 475.440979,733.735413 475.544128,750.874023 &#xA;&#9;C475.564117,754.194397 475.378174,757.516174 475.408936,760.836182 &#xA;&#9;C475.438263,763.997437 476.971985,765.841492 480.304749,765.825989 &#xA;&#9;C483.133881,765.812805 485.963531,765.804382 488.791840,765.743713 &#xA;&#9;C492.539337,765.663269 495.584991,764.344971 497.403839,760.825745 &#xA;&#9;C497.999054,759.674133 498.574585,758.342957 500.312103,758.672668 &#xA;&#9;C502.509064,766.782532 498.653900,772.301270 490.870331,772.285522 &#xA;&#9;C481.881592,772.267395 472.892365,772.339050 463.904419,772.255676 &#xA;&#9;C462.055756,772.238525 459.846771,773.069336 458.515991,770.956482 &#xA;&#9;C458.540436,769.375854 459.674652,768.996643 460.758453,768.529663 &#xA;&#9;C463.756470,767.238098 464.781464,764.788452 464.783142,761.698853 &#xA;&#9;C464.794464,740.891541 464.707520,720.082947 464.929108,699.277771 &#xA;&#9;C464.982361,694.279724 461.269012,692.726257 458.307098,690.590454 &#xA;&#9;C458.697388,688.627197 460.043213,688.770081 461.128296,688.759521 &#xA;&#9;C467.286499,688.699280 473.446381,688.657593 479.603760,688.744324 &#xA;&#9;C481.576080,688.772156 484.355133,688.766846 480.929718,691.945251 &#xA;z"/>
<path fill="#f0cc29" opacity="1.000000" stroke="none" d="&#xA;M592.965332,369.627075 &#xA;&#9;C653.763611,368.279724 714.081787,369.478424 774.387390,368.644928 &#xA;&#9;C794.763062,368.363312 814.879944,365.591766 834.599915,360.337555 &#xA;&#9;C837.469666,359.572937 840.228760,358.275330 842.917175,356.972748 &#xA;&#9;C848.176880,354.424377 852.326111,351.072052 850.140015,343.553223 &#xA;&#9;C854.221863,345.553131 854.508728,348.170288 853.554565,351.247040 &#xA;&#9;C852.141724,355.802704 848.442383,358.124298 844.529358,360.068726 &#xA;&#9;C832.263550,366.163788 818.964478,368.479980 805.576965,370.286835 &#xA;&#9;C786.557922,372.853699 767.413147,373.285492 748.250000,373.285461 &#xA;&#9;C591.464722,373.285217 434.679382,373.265137 277.894135,373.342285 &#xA;&#9;C257.340393,373.352417 236.974594,371.922791 216.925049,367.229248 &#xA;&#9;C211.250961,365.900940 205.716370,364.041992 200.362518,361.707886 &#xA;&#9;C197.295883,360.370941 194.297348,358.837982 191.934967,356.432983 &#xA;&#9;C189.179947,353.628235 186.825882,350.519928 188.614944,346.230713 &#xA;&#9;C190.555496,341.578156 196.937637,337.323883 201.296722,337.679352 &#xA;&#9;C201.486008,340.144135 199.280289,340.440979 197.877930,341.390991 &#xA;&#9;C190.102631,346.658051 190.053650,351.709961 198.136765,356.511475 &#xA;&#9;C207.021652,361.789276 217.111557,363.682800 227.074783,365.588531 &#xA;&#9;C239.666687,367.997009 252.360184,369.219482 265.266937,369.110443 &#xA;&#9;C290.736267,368.895264 316.215759,369.746918 341.682861,369.451599 &#xA;&#9;C364.304596,369.189270 386.937866,369.155487 409.542786,369.305756 &#xA;&#9;C454.691315,369.605865 499.839172,369.429352 544.986389,369.675049 &#xA;&#9;C560.814148,369.761200 576.642944,369.650391 592.965332,369.627075 &#xA;z"/>
<path fill="#f0cc29" opacity="1.000000" stroke="none" d="&#xA;M616.964172,517.044067 &#xA;&#9;C615.401123,516.455566 613.954224,516.380981 613.240295,514.950745 &#xA;&#9;C613.118896,512.851624 614.707703,512.318176 616.256592,511.610016 &#xA;&#9;C623.334595,508.373840 631.374023,507.773956 638.125427,503.599731 &#xA;&#9;C638.831299,503.163300 640.208862,503.229736 641.002869,503.618408 &#xA;&#9;C644.927307,505.539551 648.398193,504.104797 651.992493,502.605194 &#xA;&#9;C654.542908,501.541168 657.614502,499.766632 657.876831,504.975922 &#xA;&#9;C658.004150,507.503967 661.373474,506.649139 662.257507,508.889984 &#xA;&#9;C661.593079,512.285217 658.956177,514.483215 655.943359,513.004028 &#xA;&#9;C650.014221,510.092957 646.138489,514.716553 641.363892,515.871704 &#xA;&#9;C640.146057,516.166321 639.087708,517.451660 637.703369,517.194458 &#xA;&#9;C630.912720,515.932434 624.125244,517.569641 616.964172,517.044067 &#xA;z"/>
<path fill="#f0cc29" opacity="1.000000" stroke="none" d="&#xA;M453.976807,538.039368 &#xA;&#9;C457.461731,534.494995 462.251282,531.854553 459.319763,525.972412 &#xA;&#9;C462.951965,524.179321 470.162354,526.009033 473.116455,529.406189 &#xA;&#9;C472.593536,531.050720 471.131989,530.885986 469.860626,531.072449 &#xA;&#9;C468.293610,531.302368 466.357117,530.737610 465.652557,532.877563 &#xA;&#9;C464.987946,534.896179 466.018188,536.232727 467.377716,537.679382 &#xA;&#9;C472.201080,542.811951 472.041382,547.642029 467.109985,552.294312 &#xA;&#9;C462.532166,556.612976 456.489227,556.193970 451.953796,551.243347 &#xA;&#9;C448.394745,547.358521 448.999390,542.808777 453.976807,538.039368 &#xA;z"/>
<path fill="#f0cc29" opacity="1.000000" stroke="none" d="&#xA;M473.080383,465.196320 &#xA;&#9;C469.338531,461.603241 465.761017,459.683655 461.790466,464.398499 &#xA;&#9;C459.530396,462.827209 458.789703,459.546692 455.377686,460.066589 &#xA;&#9;C454.131531,460.256500 452.574768,459.400757 453.127441,457.607483 &#xA;&#9;C453.612885,456.032379 454.950043,456.099487 456.427673,456.361481 &#xA;&#9;C468.056976,458.423767 479.926941,455.973846 491.561615,458.160278 &#xA;&#9;C491.771637,458.199738 492.062469,457.808868 492.356934,457.587769 &#xA;&#9;C492.722748,455.218475 490.160278,455.478821 489.298004,454.227234 &#xA;&#9;C487.546753,451.685150 486.533875,448.823303 489.342621,446.667084 &#xA;&#9;C492.172119,444.494934 493.306854,447.567047 494.683289,449.284332 &#xA;&#9;C495.200165,449.929138 495.583557,450.684784 495.998566,451.406708 &#xA;&#9;C497.964905,454.827454 498.088531,459.790802 505.141846,459.439026 &#xA;&#9;C500.817139,463.479309 497.115997,463.103271 493.677887,462.836853 &#xA;&#9;C489.210510,462.490631 485.125610,461.447083 481.581177,466.025604 &#xA;&#9;C479.797577,468.329529 476.016052,467.451294 473.080383,465.196320 &#xA;z"/>
<path fill="#f0cc29" opacity="1.000000" stroke="none" d="&#xA;M374.152222,378.821533 &#xA;&#9;C380.464355,377.883057 386.275543,380.860870 392.300049,378.546539 &#xA;&#9;C394.224060,377.807465 397.186981,379.772858 399.696594,380.507233 &#xA;&#9;C399.254395,383.012848 397.383972,382.946014 395.806976,382.991486 &#xA;&#9;C389.492920,383.173553 383.170593,383.691589 376.865021,382.808136 &#xA;&#9;C371.540802,382.062134 366.246613,382.665161 360.947388,383.157501 &#xA;&#9;C354.571320,383.749908 348.369263,383.220673 342.540863,379.875519 &#xA;&#9;C352.867157,377.687103 363.312653,379.162415 374.152222,378.821533 &#xA;z"/>
<path fill="#f0cc29" opacity="1.000000" stroke="none" d="&#xA;M705.578857,437.352234 &#xA;&#9;C707.180298,437.949219 709.116882,437.396759 709.252441,440.003479 &#xA;&#9;C703.704346,441.149353 698.246460,440.942322 692.867188,439.244843 &#xA;&#9;C690.757263,438.579010 687.623230,430.516541 688.594543,428.622986 &#xA;&#9;C689.267212,427.311615 690.935669,426.859406 691.358643,427.965240 &#xA;&#9;C693.835388,434.442200 700.838074,433.840179 705.578857,437.352234 &#xA;z"/>
<path fill="#f0cc29" opacity="1.000000" stroke="none" d="&#xA;M706.510071,427.281311 &#xA;&#9;C709.355957,425.111023 712.015015,424.265839 715.071655,426.012939 &#xA;&#9;C717.536194,427.421692 717.443665,429.937073 717.589233,432.147736 &#xA;&#9;C717.750793,434.603241 715.846497,436.087952 713.777893,436.804199 &#xA;&#9;C711.764954,437.501160 709.714661,437.060425 708.841980,434.747253 &#xA;&#9;C708.325256,433.377655 707.449036,432.690674 706.195068,432.039062 &#xA;&#9;C703.486023,430.631256 704.294556,429.004211 706.510071,427.281311 &#xA;z"/>
<path fill="#f0cc29" opacity="1.000000" stroke="none" d="&#xA;M683.088684,493.300598 &#xA;&#9;C686.446411,493.426453 687.666199,496.558105 690.361633,497.401428 &#xA;&#9;C691.398682,497.725891 691.191223,499.346191 690.108704,500.302185 &#xA;&#9;C688.113098,502.064545 679.212097,502.221924 677.030151,500.479950 &#xA;&#9;C675.633789,499.365112 675.930664,498.116913 677.044617,497.126007 &#xA;&#9;C678.753540,495.605835 680.399475,493.931335 683.088684,493.300598 &#xA;z"/>
<path fill="#f0cc29" opacity="1.000000" stroke="none" d="&#xA;M783.660156,324.817627 &#xA;&#9;C787.542542,324.626740 791.018860,324.544556 794.320740,325.877563 &#xA;&#9;C795.635193,326.408234 797.476624,326.739471 796.869324,328.814056 &#xA;&#9;C796.377380,330.494812 795.256714,331.776550 793.248291,331.486633 &#xA;&#9;C789.997864,331.017426 786.747559,330.518188 783.527832,329.877930 &#xA;&#9;C782.214172,329.616730 780.925171,328.795807 780.742004,327.375519 &#xA;&#9;C780.530457,325.735931 781.918152,325.218964 783.660156,324.817627 &#xA;z"/>
<path fill="#f0cc29" opacity="1.000000" stroke="none" d="&#xA;M824.494324,335.983337 &#xA;&#9;C821.676636,334.460388 817.080261,336.937073 816.425110,331.912598 &#xA;&#9;C821.033569,329.987366 835.301331,335.058105 838.703857,340.283264 &#xA;&#9;C833.133789,340.796234 829.664062,335.867706 824.494324,335.983337 &#xA;z"/>
<path fill="#f0cc29" opacity="1.000000" stroke="none" d="&#xA;M666.753784,499.254883 &#xA;&#9;C665.734863,496.659882 664.006348,494.129272 667.344421,492.594208 &#xA;&#9;C669.873718,491.431091 671.693420,493.090607 673.100464,495.111694 &#xA;&#9;C674.542847,497.183655 674.442627,499.211792 672.500610,500.819611 &#xA;&#9;C670.247070,502.685150 668.279358,502.205780 666.753784,499.254883 &#xA;z"/>
<path fill="#f0cc29" opacity="1.000000" stroke="none" d="&#xA;M517.809021,377.200836 &#xA;&#9;C518.767212,377.813263 518.826660,378.667786 518.092773,378.746674 &#xA;&#9;C514.282471,379.156403 510.451263,379.371979 506.562836,379.098053 &#xA;&#9;C510.084320,377.653473 513.699707,376.922241 517.809021,377.200836 &#xA;z"/>
<path fill="#f0cc29" opacity="1.000000" stroke="none" d="&#xA;M367.253326,489.880554 &#xA;&#9;C370.334930,488.256287 371.375824,489.611938 371.897095,492.273560 &#xA;&#9;C369.665710,493.739166 367.662445,493.497314 365.996002,491.913422 &#xA;&#9;C365.210938,491.167236 366.372833,490.567108 367.253326,489.880554 &#xA;z"/>
<path fill="#f0cc29" opacity="1.000000" stroke="none" d="&#xA;M539.486511,322.812531 &#xA;&#9;C538.270325,326.057800 538.270325,326.057800 532.655029,323.938873 &#xA;&#9;C535.043213,322.881134 537.025330,322.263916 539.486511,322.812531 &#xA;z"/>
<path fill="#f0cc29" opacity="1.000000" stroke="none" d="&#xA;M572.797852,318.999084 &#xA;&#9;C570.744751,319.408722 568.972168,320.015381 567.181396,318.215302 &#xA;&#9;C569.767334,316.284729 572.463989,317.247040 575.085022,317.167023 &#xA;&#9;C575.186646,318.917633 573.852844,318.542236 572.797852,318.999084 &#xA;z"/>
</svg>